:SAMPLES-PER-SECOND 30
:FULLY-SPECIFIED
:DEGREES
163
root  -5.97258 39.3832 3.19211 -24.7517 -81.913 21.9106
RightUpLeg  -20.747 -5.9511 -2.72364
RightLeg  18.8258 -0.578468 -0.425342
RightFoot  -8.42903 -0.165899 4.26964
RightToes  -1.74624e-010 0 -3.6325e-017
Spine  9.78786 -3.7445 -9.97261
Spine1  3.0856 -5.19675 2.8116
HEad  -12.7051 3.82167 0.161763
LeftShoulder1  -1.05496 6.22755 -32.5537
LeftArm  -6.95677 0.525442 -45.6515
LeftForeArm  33.32 -6.55538 -7.25124
LeftHand  -0.0646627 8.25676 -0.800553
RightShoulder  -1.05304 -6.67682 26.6377
RightArm  30.2148 -27.6778 41.2214
RightForeArm  19.2647 20.2552 4.48086
RightHand  0.0188795 3.51332 0.00805767
LeftUpLeg  5.94157 7.55437 -1.54578
LeftLeg  9.63313 3.76768 -0.878473
LeftFoot  -15.6856 -0.0158402 -2.90325
LeftToes  -3.96543e-010 8.93632e-011 -2.58531e-011
164
root  -6.66265 39.3151 3.5789 -24.0556 -81.3496 20.9952
RightUpLeg  -20.1283 -7.52097 -1.2007
RightLeg  12.0423 -1.60485 -0.135288
RightFoot  -8.16512 -0.175707 4.33691
RightToes  -1.74624e-010 0 -3.6325e-017
Spine  10.2669 -4.11615 -10.7628
Spine1  2.90945 -5.92137 4.11876
HEad  -12.512 3.86009 0.655308
LeftShoulder1  -1.02739 6.16634 -32.4041
LeftArm  -4.78322 -1.14914 -47.073
LeftForeArm  31.6915 -9.29455 -7.85752
LeftHand  -0.0420778 7.99422 0.0487442
RightShoulder  -1.03748 -6.703 25.866
RightArm  22.713 -27.4256 40.8767
RightForeArm  23.4524 16.2598 5.32414
RightHand  0.0535433 2.65955 0.540561
LeftUpLeg  7.77161 7.67778 -1.78908
LeftLeg  8.91509 3.16108 -1.18584
LeftFoot  -16.3373 -0.00240211 -2.29481
LeftToes  -3.96543e-010 8.93632e-011 -2.58531e-011
165
root  -7.4222 39.178 3.9878 -28.1671 -81.3658 25.3203
RightUpLeg  -20.2162 -6.40868 -1.13805
RightLeg  6.99967 -5.32281 0.667859
RightFoot  -7.45935 -0.199561 4.37551
RightToes  -1.74624e-010 0 -3.6325e-017
Spine  10.0595 -4.06441 -11.4471
Spine1  2.95735 -6.05398 4.945
HEad  -12.915 3.73812 0.465564
LeftShoulder1  -0.985899 6.09578 -31.8636
LeftArm  -1.95959 -2.7054 -49.1632
LeftForeArm  29.9492 -12.2334 -7.39747
LeftHand  -0.0299425 6.79268 0.554922
RightShoulder  -1.0906 -6.86302 25.9129
RightArm  14.6165 -26.3136 39.8767
RightForeArm  25.9456 12.572 5.18202
RightHand  0.0468118 1.87533 0.592936
LeftUpLeg  9.22314 7.40289 -2.8936
LeftLeg  8.3472 3.80693 -1.21116
LeftFoot  -17.0881 0.0112241 -1.82227
LeftToes  -3.96543e-010 8.93632e-011 -2.58531e-011
166
root  -8.27666 38.9697 4.39476 -30.8199 -81.1348 28.2537
RightUpLeg  -20.2924 -5.47176 -1.22152
RightLeg  3.77979 -9.36175 1.44909
RightFoot  -6.40635 -0.23597 4.47912
RightToes  -1.74624e-010 0 -3.6325e-017
Spine  9.80958 -4.05136 -11.8258
Spine1  2.70658 -6.22048 5.89195
HEad  -13.2067 3.13166 -0.15361
LeftShoulder1  -0.995797 6.10557 -32.0872
LeftArm  3.85247 -4.10601 -50.3958
LeftForeArm  25.0535 -15.88 -6.64242
LeftHand  -0.0221843 6.02428 1.66615
RightShoulder  -1.05577 -6.81614 25.3054
RightArm  9.65329 -25.1568 39.1041
RightForeArm  24.6007 10.0609 4.1813
RightHand  0.143824 2.18509 2.04078
LeftUpLeg  10.3937 7.4711 -3.66111
LeftLeg  8.57732 3.82106 -1.45353
LeftFoot  -18.206 0.0461784 -1.06489
LeftToes  -3.96543e-010 8.93632e-011 -2.58531e-011
167
root  -9.21575 38.7459 4.79131 -31.451 -80.8 28.8912
RightUpLeg  -20.3713 -5.74645 -0.990612
RightLeg  3.70191 -11.3357 1.80543
RightFoot  -5.40666 -0.24474 3.96526
RightToes  -1.74624e-010 0 -3.6325e-017
Spine  9.57753 -3.99064 -11.5152
Spine1  2.92118 -6.28298 6.51394
HEad  -13.6565 1.92066 -0.288367
LeftShoulder1  -0.884797 5.84798 -31.5834
LeftArm  8.12841 -5.15688 -52.098
LeftForeArm  21.2094 -18.8458 -5.44964
LeftHand  -0.0330703 4.93391 2.27763
RightShoulder  -1.08636 -6.88417 25.5796
RightArm  7.79296 -23.3898 37.5999
RightForeArm  19.1864 9.06804 3.55421
RightHand  -0.0161116 2.00624 -0.433392
LeftUpLeg  11.8758 7.47054 -4.12218
LeftLeg  8.96368 3.54396 -1.51
LeftFoot  -19.5169 0.0779025 -0.512756
LeftToes  -3.96543e-010 8.93632e-011 -2.58531e-011
168
root  -10.2577 38.4976 5.19849 -28.7075 -80.5646 25.8534
RightUpLeg  -20.3879 -6.96365 -0.0582185
RightLeg  6.4183 -10.7881 1.42474
RightFoot  -4.81978 -0.185101 2.66193
RightToes  -1.74624e-010 0 -3.6325e-017
Spine  9.28699 -3.97191 -10.0382
Spine1  3.61938 -6.29812 6.8932
HEad  -14.6974 1.36323 -0.79449
LeftShoulder1  -0.881694 5.83354 -31.668
LeftArm  11.6907 -5.61505 -53.0935
LeftForeArm  19.0563 -22.9802 -4.0872
LeftHand  -0.0242983 5.48538 2.70344
RightShoulder  -1.07027 -6.81838 25.7373
RightArm  8.1152 -21.3905 36.0497
RightForeArm  15.7016 9.36463 3.64507
RightHand  -0.0271068 1.98635 -0.600381
LeftUpLeg  13.826 7.55318 -3.90569
LeftLeg  9.4611 2.76905 -1.33439
LeftFoot  -21.2396 0.0392464 -1.03587
LeftToes  -3.96543e-010 8.93632e-011 -2.58531e-011
